# xmcd CD database file
#
# Track frame offsets:
#	150
#	8692
#	25470
#	44190
#	56632
#	74805
#	89505
#	108080
#	127067
#	142185
#	160587
#	180050
#
# Disc length: 2497 seconds
#
# Revision: 1
# Processed by: cddbd v1.5.1PL0 Copyright (c) Steve Scherf et al.
# Submitted via: CDex 1.51
#
DISCID=a909bf0c
DTITLE=Logh - A Sunset Panorama
DYEAR=2005
DGENRE=Indie Rock
TTITLE0=String Theory
TTITLE1=Fell Into the Well
TTITLE2=A Sunset Knife Fight
TTITLE3=Destinymanifesto
TTITLE4=Asymmetric Tricks
TTITLE5=Bring On the Ether
TTITLE6=The Big Sleep
TTITLE7=Trace Back the Particle Track
TTITLE8=Ahabian
TTITLE9=My Teacher's Bed
TTITLE10=The Smoke Will Lead You Home
TTITLE11=Exit
EXTD=YEAR: 2005
EXTT0=
EXTT1=
EXTT2=
EXTT3=
EXTT4=
EXTT5=
EXTT6=
EXTT7=
EXTT8=
EXTT9=
EXTT10=
EXTT11=
PLAYORDER=
